<?xml version="1.0" encoding="UTF-8"?>
<!DOCTYPE svg PUBLIC "-//W3C//DTD SVG 1.1//EN" "http://www.w3.org/Graphics/SVG/1.1/DTD/svg11.dtd">
<!-- Creator: CorelDRAW 2021 (64 Bit) -->
<svg xmlns="http://www.w3.org/2000/svg" xml:space="preserve" width="43.1798mm" height="17.7798mm" version="1.1" style="shape-rendering:geometricPrecision; text-rendering:geometricPrecision; image-rendering:optimizeQuality; fill-rule:evenodd; clip-rule:evenodd"
viewBox="0 0 4317.98 1777.98"
 xmlns:xlink="http://www.w3.org/1999/xlink"
 xmlns:xodm="http://www.corel.com/coreldraw/odm/2003">
 <defs>
  <style type="text/css">
   <![CDATA[
    .fil0 {fill:black;fill-rule:nonzero}
   ]]>
  </style>
 </defs>
 <g id="Camada_x0020_1">
  <metadata id="CorelCorpID_0Corel-Layer"/>
  <g id="_1489567484784">
   <path class="fil0" d="M864.92 1291.92l21.98 -1.97c1.03,8.89 3.45,16.17 7.28,21.89 3.83,5.68 9.76,10.29 17.78,13.83 8.03,3.5 17.08,5.27 27.12,5.27 8.93,0 16.8,-1.32 23.63,-3.99 6.83,-2.68 11.89,-6.34 15.23,-10.99 3.33,-4.65 5.02,-9.71 5.02,-15.15 0,-5.51 -1.61,-10.33 -4.82,-14.48 -3.21,-4.12 -8.52,-7.58 -15.93,-10.42 -4.73,-1.81 -15.22,-4.69 -31.48,-8.6 -16.26,-3.91 -27.62,-7.57 -34.12,-11.03 -8.44,-4.44 -14.69,-9.96 -18.81,-16.5 -4.16,-6.55 -6.21,-13.91 -6.21,-22.02 0,-8.97 2.55,-17.33 7.61,-25.06 5.06,-7.78 12.43,-13.67 22.18,-17.7 9.72,-4.04 20.54,-6.05 32.44,-6.05 13.08,0 24.65,2.1 34.65,6.34 10,4.19 17.7,10.41 23.09,18.64 5.39,8.19 8.27,17.49 8.68,27.86l-22.47 1.73c-1.19,-11.15 -5.27,-19.59 -12.22,-25.27 -6.96,-5.72 -17.25,-8.56 -30.83,-8.56 -14.16,0 -24.49,2.59 -30.95,7.78 -6.46,5.18 -9.71,11.44 -9.71,18.77 0,6.33 2.3,11.56 6.87,15.68 4.53,4.07 16.26,8.31 35.27,12.59 19.02,4.32 32.06,8.07 39.14,11.28 10.25,4.73 17.86,10.7 22.76,17.98 4.9,7.25 7.33,15.6 7.33,25.07 0,9.42 -2.68,18.23 -8.07,26.54 -5.39,8.32 -13.09,14.78 -23.17,19.39 -10.08,4.61 -21.4,6.91 -34.04,6.91 -15.97,0 -29.34,-2.34 -40.12,-6.99 -10.83,-4.65 -19.27,-11.65 -25.4,-21.03 -6.17,-9.35 -9.38,-19.92 -9.71,-31.74zm165.2 -29.26c0,-29.3 7.91,-52.27 23.67,-68.85 15.76,-16.59 36.09,-24.86 61.03,-24.86 16.34,0 31.04,3.91 44.16,11.69 13.09,7.77 23.09,18.64 29.97,32.59 6.87,13.91 10.33,29.72 10.33,47.37 0,17.91 -3.62,33.96 -10.87,48.07 -7.24,14.16 -17.49,24.86 -30.74,32.11 -13.3,7.28 -27.62,10.9 -42.97,10.9 -16.67,0 -31.53,-4.03 -44.65,-12.06 -13.09,-8.02 -23.05,-18.97 -29.8,-32.88 -6.75,-13.87 -10.13,-28.56 -10.13,-44.08zm24.2 0.41c0,21.28 5.72,38.03 17.17,50.26 11.44,12.22 25.8,18.35 43.09,18.35 17.61,0 32.06,-6.17 43.46,-18.52 11.36,-12.35 17.04,-29.88 17.04,-52.6 0,-14.36 -2.43,-26.91 -7.29,-37.61 -4.85,-10.71 -11.97,-19.02 -21.32,-24.9 -9.38,-5.89 -19.88,-8.85 -31.52,-8.85 -16.55,0 -30.79,5.68 -42.72,17.04 -11.94,11.35 -17.91,30.29 -17.91,56.83zm174.06 85.65l0 -176.81 23.46 0 0 156.07 86.92 0 0 20.74 -110.38 0zm254.14 -176.81l23.46 0 0 102.11c0,17.78 -2.02,31.9 -6.01,42.35 -4.03,10.41 -11.28,18.93 -21.73,25.48 -10.5,6.54 -24.2,9.83 -41.24,9.83 -16.5,0 -30.04,-2.84 -40.54,-8.56 -10.54,-5.72 -18.03,-13.95 -22.51,-24.77 -4.49,-10.83 -6.75,-25.6 -6.75,-44.33l0 -102.11 23.46 0 0 102.07c0,15.35 1.44,26.71 4.28,33.95 2.84,7.29 7.69,12.93 14.65,16.84 6.91,3.95 15.39,5.92 25.39,5.92 17.12,0 29.35,-3.91 36.63,-11.69 7.29,-7.81 10.91,-22.8 10.91,-45.02l0 -102.07zm188.45 114.79l23.46 5.92c-4.89,19.22 -13.7,33.83 -26.42,43.92 -12.72,10.08 -28.27,15.14 -46.67,15.14 -19.02,0 -34.49,-3.87 -46.43,-11.64 -11.93,-7.74 -20.99,-18.98 -27.2,-33.67 -6.22,-14.73 -9.34,-30.5 -9.34,-47.37 0,-18.4 3.5,-34.45 10.53,-48.15 7.04,-13.71 17.04,-24.12 30.01,-31.24 12.96,-7.12 27.24,-10.66 42.8,-10.66 17.7,0 32.55,4.48 44.57,13.5 12.06,9.01 20.46,21.65 25.19,37.94l-22.97 5.44c-4.07,-12.84 -10.04,-22.23 -17.82,-28.07 -7.78,-5.89 -17.57,-8.81 -29.38,-8.81 -13.54,0 -24.9,3.25 -34,9.75 -9.09,6.51 -15.51,15.27 -19.18,26.22 -3.7,10.99 -5.55,22.31 -5.55,33.95 0,15.03 2.18,28.16 6.54,39.35 4.36,11.24 11.15,19.59 20.37,25.15 9.22,5.55 19.18,8.31 29.92,8.31 13.09,0 24.12,-3.79 33.18,-11.32 9.05,-7.57 15.18,-18.76 18.39,-33.66zm-68.48 83.26l6.25 -21.24 16.06 0 -4 12.84c6.88,0.82 12.06,2.92 15.56,6.34 3.5,3.37 5.23,7.16 5.23,11.32 0,6.01 -2.92,11.32 -8.77,15.92 -5.8,4.61 -14.61,6.92 -26.34,6.92 -6.62,0 -12.47,0 -17.49,0l1.23 -15.31c5.23,0.16 9.02,0.25 11.49,0.25 7.61,0 13,-1.03 16.09,-3.13 2.35,-1.61 3.54,-3.54 3.54,-5.89 0,-1.44 -0.45,-2.71 -1.4,-3.83 -0.91,-1.11 -2.59,-2.09 -5.06,-2.88 -2.51,-0.78 -6.63,-1.23 -12.39,-1.31zm113.71 -107.3c0,-29.3 7.91,-52.27 23.67,-68.85 15.76,-16.59 36.09,-24.86 61.03,-24.86 16.34,0 31.04,3.91 44.16,11.69 13.09,7.77 23.09,18.64 29.97,32.59 6.87,13.91 10.33,29.72 10.33,47.37 0,17.91 -3.62,33.96 -10.87,48.07 -7.24,14.16 -17.49,24.86 -30.74,32.11 -13.3,7.28 -27.62,10.9 -42.97,10.9 -16.67,0 -31.53,-4.03 -44.65,-12.06 -13.09,-8.02 -23.05,-18.97 -29.8,-32.88 -6.75,-13.87 -10.13,-28.56 -10.13,-44.08zm24.2 0.41c0,21.28 5.72,38.03 17.17,50.26 11.44,12.22 25.8,18.35 43.09,18.35 17.61,0 32.06,-6.17 43.46,-18.52 11.36,-12.35 17.04,-29.88 17.04,-52.6 0,-14.36 -2.43,-26.91 -7.29,-37.61 -4.85,-10.71 -11.97,-19.02 -21.32,-24.9 -9.38,-5.89 -19.88,-8.85 -31.52,-8.85 -16.55,0 -30.79,5.68 -42.72,17.04 -11.94,11.35 -17.91,30.29 -17.91,56.83zm19.76 -101.78c-0.08,-8.27 2.22,-14.86 6.87,-19.79 4.57,-4.9 10.46,-7.37 17.62,-7.37 4.98,0 11.77,2.1 20.33,6.34 4.73,2.34 8.52,3.54 11.32,3.54 2.59,0 4.56,-0.7 5.92,-2.1 1.36,-1.36 2.31,-4.16 2.88,-8.27l15.56 0c-0.25,9.13 -2.55,15.96 -6.91,20.53 -4.37,4.57 -9.88,6.88 -16.63,6.88 -5.02,0 -11.69,-2.27 -19.92,-6.75 -5.39,-2.93 -9.34,-4.37 -11.85,-4.37 -2.72,0 -4.94,0.95 -6.59,2.88 -1.77,1.9 -2.63,4.74 -2.55,8.48l-16.05 0zm155.78 187.43l0 -176.81 127.67 0 0 20.74 -104.21 0 0 54.33 97.54 0 0 20.74 -97.54 0 0 60.26 108.4 0 0 20.74 -131.86 0zm156.56 -56.8l21.98 -1.97c1.03,8.89 3.45,16.17 7.28,21.89 3.83,5.68 9.76,10.29 17.78,13.83 8.03,3.5 17.08,5.27 27.12,5.27 8.93,0 16.8,-1.32 23.63,-3.99 6.83,-2.68 11.89,-6.34 15.23,-10.99 3.33,-4.65 5.02,-9.71 5.02,-15.15 0,-5.51 -1.61,-10.33 -4.82,-14.48 -3.21,-4.12 -8.52,-7.58 -15.93,-10.42 -4.73,-1.81 -15.22,-4.69 -31.48,-8.6 -16.26,-3.91 -27.62,-7.57 -34.12,-11.03 -8.44,-4.44 -14.69,-9.96 -18.81,-16.5 -4.16,-6.55 -6.21,-13.91 -6.21,-22.02 0,-8.97 2.55,-17.33 7.61,-25.06 5.06,-7.78 12.43,-13.67 22.18,-17.7 9.72,-4.04 20.54,-6.05 32.44,-6.05 13.08,0 24.65,2.1 34.65,6.34 10,4.19 17.7,10.41 23.09,18.64 5.39,8.19 8.27,17.49 8.68,27.86l-22.47 1.73c-1.19,-11.15 -5.27,-19.59 -12.22,-25.27 -6.96,-5.72 -17.25,-8.56 -30.83,-8.56 -14.16,0 -24.49,2.59 -30.95,7.78 -6.46,5.18 -9.71,11.44 -9.71,18.77 0,6.33 2.3,11.56 6.87,15.68 4.53,4.07 16.26,8.31 35.27,12.59 19.02,4.32 32.06,8.07 39.14,11.28 10.25,4.73 17.86,10.7 22.76,17.98 4.9,7.25 7.33,15.6 7.33,25.07 0,9.42 -2.68,18.23 -8.07,26.54 -5.39,8.32 -13.09,14.78 -23.17,19.39 -10.08,4.61 -21.4,6.91 -34.04,6.91 -15.97,0 -29.34,-2.34 -40.12,-6.99 -10.83,-4.65 -19.27,-11.65 -25.4,-21.03 -6.17,-9.35 -9.38,-19.92 -9.71,-31.74zm241.47 56.8l0 -176.81 127.67 0 0 20.74 -104.21 0 0 54.33 97.54 0 0 20.74 -97.54 0 0 60.26 108.4 0 0 20.74 -131.86 0zm236.78 0l0 -176.81 23.45 0 0 176.81 -23.45 0zm64.41 0l0 -176.81 24.03 0 92.77 138.78 0 -138.78 22.47 0 0 176.81 -24.03 0 -92.77 -138.78 0 138.78 -22.47 0zm171.41 -86.06c0,-29.3 7.91,-52.27 23.67,-68.85 15.76,-16.59 36.09,-24.86 61.03,-24.86 16.34,0 31.04,3.91 44.16,11.69 13.09,7.77 23.09,18.64 29.97,32.59 6.87,13.91 10.33,29.72 10.33,47.37 0,17.91 -3.62,33.96 -10.87,48.07 -7.24,14.16 -17.49,24.86 -30.74,32.11 -13.3,7.28 -27.62,10.9 -42.97,10.9 -16.67,0 -31.53,-4.03 -44.65,-12.06 -13.09,-8.02 -23.05,-18.97 -29.8,-32.88 -6.75,-13.87 -10.13,-28.56 -10.13,-44.08zm24.2 0.41c0,21.28 5.72,38.03 17.17,50.26 11.44,12.22 25.8,18.35 43.09,18.35 17.61,0 32.06,-6.17 43.46,-18.52 11.36,-12.35 17.04,-29.88 17.04,-52.6 0,-14.36 -2.43,-26.91 -7.29,-37.61 -4.85,-10.71 -11.97,-19.02 -21.32,-24.9 -9.38,-5.89 -19.88,-8.85 -31.52,-8.85 -16.55,0 -30.79,5.68 -42.72,17.04 -11.94,11.35 -17.91,30.29 -17.91,56.83zm225.42 85.65l-68.32 -176.81 25.35 0 45.93 128.49c3.67,10.29 6.79,19.92 9.26,28.94 2.72,-9.68 5.89,-19.31 9.51,-28.94l47.66 -128.49 23.87 0 -68.94 176.81 -24.32 0zm76.63 0l67.83 -176.81 25.72 0 71.98 176.81 -26.63 0 -20.45 -53.59 -74.45 0 -19.18 53.59 -24.82 0zm50.87 -72.6l60.25 0 -18.44 -49.02c-5.55,-14.9 -9.75,-27.2 -12.67,-36.92 -2.43,11.53 -5.68,22.85 -9.76,34.04l-19.38 51.9zm259.16 10.58l23.46 5.92c-4.89,19.22 -13.7,33.83 -26.42,43.92 -12.72,10.08 -28.27,15.14 -46.67,15.14 -19.02,0 -34.49,-3.87 -46.43,-11.64 -11.93,-7.74 -20.99,-18.98 -27.2,-33.67 -6.22,-14.73 -9.34,-30.5 -9.34,-47.37 0,-18.4 3.5,-34.45 10.53,-48.15 7.04,-13.71 17.04,-24.12 30.01,-31.24 12.96,-7.12 27.24,-10.66 42.8,-10.66 17.7,0 32.55,4.48 44.57,13.5 12.06,9.01 20.46,21.65 25.19,37.94l-22.97 5.44c-4.07,-12.84 -10.04,-22.23 -17.82,-28.07 -7.78,-5.89 -17.57,-8.81 -29.38,-8.81 -13.54,0 -24.9,3.25 -34,9.75 -9.09,6.51 -15.51,15.27 -19.18,26.22 -3.7,10.99 -5.55,22.31 -5.55,33.95 0,15.03 2.18,28.16 6.54,39.35 4.36,11.24 11.15,19.59 20.37,25.15 9.22,5.55 19.18,8.31 29.92,8.31 13.09,0 24.12,-3.79 33.18,-11.32 9.05,-7.57 15.18,-18.76 18.39,-33.66zm-68.48 83.26l6.25 -21.24 16.06 0 -4 12.84c6.88,0.82 12.06,2.92 15.56,6.34 3.5,3.37 5.23,7.16 5.23,11.32 0,6.01 -2.92,11.32 -8.77,15.92 -5.8,4.61 -14.61,6.92 -26.34,6.92 -6.62,0 -12.47,0 -17.49,0l1.23 -15.31c5.23,0.16 9.02,0.25 11.49,0.25 7.61,0 13,-1.03 16.09,-3.13 2.35,-1.61 3.54,-3.54 3.54,-5.89 0,-1.44 -0.45,-2.71 -1.4,-3.83 -0.91,-1.11 -2.59,-2.09 -5.06,-2.88 -2.51,-0.78 -6.63,-1.23 -12.39,-1.31zm101.49 -21.24l67.83 -176.81 25.72 0 71.98 176.81 -26.63 0 -20.45 -53.59 -74.45 0 -19.18 53.59 -24.82 0zm50.87 -72.6l60.25 0 -18.44 -49.02c-5.55,-14.9 -9.75,-27.2 -12.67,-36.92 -2.43,11.53 -5.68,22.85 -9.76,34.04l-19.38 51.9zm-10.25 -114.83c-0.08,-8.27 2.22,-14.86 6.87,-19.79 4.57,-4.9 10.46,-7.37 17.62,-7.37 4.98,0 11.77,2.1 20.33,6.34 4.73,2.34 8.52,3.54 11.32,3.54 2.59,0 4.57,-0.7 5.93,-2.1 1.35,-1.36 2.3,-4.16 2.88,-8.27l15.55 0c-0.24,9.13 -2.55,15.96 -6.91,20.53 -4.36,4.57 -9.88,6.88 -16.63,6.88 -5.02,0 -11.69,-2.27 -19.92,-6.75 -5.39,-2.93 -9.34,-4.37 -11.85,-4.37 -2.72,0 -4.94,0.95 -6.59,2.88 -1.77,1.9 -2.63,4.74 -2.55,8.48l-16.05 0zm136.31 101.37c0,-29.3 7.91,-52.27 23.67,-68.85 15.76,-16.59 36.09,-24.86 61.03,-24.86 16.34,0 31.04,3.91 44.16,11.69 13.09,7.77 23.09,18.64 29.97,32.59 6.87,13.91 10.33,29.72 10.33,47.37 0,17.91 -3.62,33.96 -10.87,48.07 -7.24,14.16 -17.49,24.86 -30.74,32.11 -13.3,7.28 -27.62,10.9 -42.97,10.9 -16.67,0 -31.53,-4.03 -44.65,-12.06 -13.09,-8.02 -23.05,-18.97 -29.8,-32.88 -6.75,-13.87 -10.13,-28.56 -10.13,-44.08zm24.2 0.41c0,21.28 5.72,38.03 17.17,50.26 11.44,12.22 25.8,18.35 43.09,18.35 17.61,0 32.06,-6.17 43.46,-18.52 11.36,-12.35 17.04,-29.88 17.04,-52.6 0,-14.36 -2.43,-26.91 -7.29,-37.61 -4.85,-10.71 -11.97,-19.02 -21.32,-24.9 -9.38,-5.89 -19.88,-8.85 -31.52,-8.85 -16.55,0 -30.79,5.68 -42.72,17.04 -11.94,11.35 -17.91,30.29 -17.91,56.83z"/>
   <path class="fil0" d="M366.24 390.36l107.29 0 83.51 367.44 102.74 -367.44 90.73 0 104.75 367.44 83.38 -367.44 107.42 0 -130.67 575.61 -104.76 0 -106.08 -372.11 -104.09 372.11 -103.28 0 -130.94 -575.61zm765.87 0l314.26 0 0 107.43 -205.23 0 0 103.42 205.23 0 0 105.82 -205.23 0 0 151.51 205.23 0 0 107.43 -314.26 0 0 -575.61zm415.27 575.61l0 -575.61 90.85 0c52.78,0 91.26,3.34 115.71,10.16 34.61,9.22 62.13,26.19 82.58,50.91 20.44,24.85 30.73,54.11 30.73,87.78 0,21.91 -4.68,41.82 -13.9,59.72 -9.22,17.91 -24.32,34.74 -45.16,50.38 34.87,16.43 60.39,36.87 76.56,61.59 16.17,24.59 24.18,53.71 24.18,87.39 0,32.33 -8.41,61.72 -25.12,88.31 -16.83,26.59 -38.48,46.5 -64.93,59.6 -26.46,13.22 -62.93,19.77 -109.56,19.77l-161.94 0zm109.02 -471.39l0 121.86 24.46 0c27.25,0 47.56,-5.61 60.79,-16.97 13.23,-11.22 19.77,-26.59 19.77,-45.96 0,-18.04 -6.28,-32.34 -18.83,-43.03 -12.56,-10.55 -31.67,-15.9 -57.32,-15.9l-28.87 0zm0 219.66l0 147.51 27.8 0c46.09,0 77.22,-5.74 93.26,-17.23 16.03,-11.5 24.05,-28.2 24.05,-50.11 0,-24.72 -9.35,-44.36 -28.19,-58.66 -18.84,-14.29 -50.11,-21.51 -93.8,-21.51l-23.12 0zm897.08 -217.65l-45.43 34.87c-24.98,-32.6 -55.05,-57.32 -90.19,-74.16 -35,-16.83 -73.48,-25.25 -115.57,-25.25 -45.83,0 -88.32,11.09 -127.47,33.14 -39.15,22.04 -69.35,51.71 -90.86,88.85 -21.51,37.14 -32.33,79.1 -32.33,125.46 0,70.28 24.05,128.94 72.15,175.84 48.1,47.03 108.76,70.55 182.11,70.55 80.57,0 147.91,-31.54 202.16,-94.6l45.43 34.47c-28.73,36.48 -64.54,64.8 -107.43,84.71 -42.88,19.91 -90.85,29.93 -143.76,29.93 -100.75,0 -180.25,-33.54 -238.37,-100.61 -48.77,-56.52 -73.22,-124.93 -73.22,-204.96 0,-84.18 29.53,-155.13 88.59,-212.58 59.19,-57.59 133.21,-86.32 222.2,-86.32 53.71,0 102.21,10.56 145.5,31.67 43.29,21.24 78.83,50.91 106.49,88.99zm389.89 -120.66c87.11,0 160.07,29.13 218.72,87.25 58.66,58.12 88.05,129.74 88.05,214.72 0,84.31 -29.26,155.79 -87.78,214.45 -58.66,58.66 -130.01,88.05 -214.32,88.05 -85.24,0 -157.26,-29.26 -215.91,-87.65 -58.66,-58.39 -88.06,-129.07 -88.06,-212.04 0,-55.32 13.37,-106.49 40.09,-153.79 26.72,-47.17 63.2,-84.18 109.43,-110.9 46.09,-26.73 96.07,-40.09 149.78,-40.09zm2.54 56.12c-42.49,0 -82.84,11.09 -121.06,33.27 -38.08,22.18 -67.87,51.98 -89.38,89.52 -21.38,37.68 -32.07,79.5 -32.07,125.73 0,68.28 23.65,126 71.08,173.03 47.43,47.17 104.62,70.68 171.43,70.68 44.76,0 86.04,-10.82 123.99,-32.47 38.08,-21.64 67.74,-51.3 88.99,-88.85 21.24,-37.54 31.93,-79.23 31.93,-125.19 0,-45.7 -10.69,-86.99 -31.93,-123.86 -21.25,-36.88 -51.31,-66.41 -89.93,-88.59 -38.61,-22.18 -79.63,-33.27 -123.05,-33.27zm419.81 533.92l0 -575.61 119.45 0c86.04,0 148.57,6.95 187.46,20.71 55.85,19.65 99.54,53.45 130.94,101.82 31.4,48.23 47.16,105.69 47.16,172.49 0,57.72 -12.42,108.36 -37.41,152.19 -24.85,43.82 -57.32,76.29 -97,97.13 -39.82,20.85 -95.67,31.27 -167.42,31.27l-183.18 0zm55.31 -54.51l66.41 0c79.36,0 134.28,-4.95 165.01,-14.84 43.16,-14.16 77.23,-39.41 101.95,-76.02 24.72,-36.74 37.01,-81.51 37.01,-134.42 0,-55.45 -13.36,-103.01 -40.22,-142.29 -26.72,-39.42 -64.13,-66.41 -111.97,-80.97 -35.94,-10.96 -95.13,-16.44 -177.57,-16.44l-40.62 0 0 464.98zm542.07 -521.1l329.49 0 0 56.12 -271.77 0 0 180.38 269.36 0 0 56.12 -269.36 0 0 226.87 269.36 0 0 56.12 -327.08 0 0 -575.61z"/>
  </g>
 </g>
</svg>
